<svg xmlns="http://www.w3.org/2000/svg" viewBox="0 0 136.72 74.99"><g id="Layer_2" data-name="Layer 2"><g id="Layer_3" data-name="Layer 3"><path d="M27.6,53.42c.34-1.33-3.76-2-6.14-6.51a10,10,0,0,1-1.1-5.76,7.61,7.61,0,0,1,.73-3.41A9.38,9.38,0,0,1,23.93,35c.92-.67,4.52-2.31,5.81-2.31,0,0-1.62,0,4.56.39A4.1,4.1,0,0,0,36,32.42a4.28,4.28,0,0,0,1.19-1.29,10.7,10.7,0,0,0,1.19-3C39,26.05,39.3,25,40,24.25a5,5,0,0,1,2.29-1.46,5.53,5.53,0,0,1,3,0,17.79,17.79,0,0,1,2,.73s1,.36,2.11.73c.7.23,2.6.66,7.54.08l.63-.08c6.26-.78,31.91-9.81,47.32-14,1.06-.29,2.94-.79,5.32-1.38a8.84,8.84,0,0,1,1.93-.73,5.3,5.3,0,0,1,3.48,0,5,5,0,0,1,2,1.74s.14.2,1,1.75h0c2.32.83,4.12,1.67,4.31.09a9.51,9.51,0,0,0-.09-3.21c-.5-2.5-2.87-4.22-4.31-6.33l-12,4.13L54.84,21.59c-.34.05-2,.26-2.75-.64-.87-1.06-.37-3.58,2-5.5a9.45,9.45,0,0,0-1.47-3.76,6.93,6.93,0,0,0-3.12-2.85c-1.73-.65-3.53,0-5.68,1A43.28,43.28,0,0,0,33.38,17.1a1.48,1.48,0,0,1-1.19.64c-7.54,0-6.95-.17-9.91-.27-3.79-.14-3.87-2.08-6.92-2.46a17,17,0,0,0-6.28.07c-5,1-7.59,5.91-7.8,6.33A14.34,14.34,0,0,0,0,28.47a23.58,23.58,0,0,0,1.83,8.62,31,31,0,0,0,6,9.91,27.26,27.26,0,0,0,5.32,4.59,18.52,18.52,0,0,0,6.24,2.75C22.79,55.07,27.26,54.77,27.6,53.42Z"/><circle cx="107.09" cy="3.79" r="1.42"/><circle cx="111.14" cy="2.63" r="1.42"/><circle cx="115.09" cy="1.42" r="1.42"/><path d="M43,50.31a18,18,0,0,1-5.4.91c-3,0-5.09-.74-6.58-2.17a8,8,0,0,1-2.28-5.89c0-5.39,3.94-8.45,9.23-8.45a11.35,11.35,0,0,1,4.5.78l-.76,2.93a9.11,9.11,0,0,0-3.77-.68c-3,0-5.37,1.71-5.37,5.23,0,3.34,2.11,5.3,5.11,5.3A5.36,5.36,0,0,0,39.46,48v-3.4H37V41.78h6Z"/><path d="M49.49,34.88v9.3c0,2.79,1.07,4.22,2.93,4.22s3-1.35,3-4.22v-9.3h3.66V44c0,5-2.52,7.37-6.76,7.37-4.08,0-6.46-2.27-6.46-7.41v-9Z"/><path d="M65.88,34.88V51.05H62.22V34.88Z"/><path d="M72.18,38H67.82V34.88H80.27V38H75.84v13.1H72.18Z"/><path d="M84.23,46.9l-1.14,4.15H79.31l4.94-16.17H89l5,16.17H90.13L88.88,46.9Zm4.11-2.73-1-3.43c-.27-1-.56-2.17-.81-3.12h0c-.24,1-.48,2.18-.74,3.12l-1,3.43Z"/><path d="M96.23,35.1a30.59,30.59,0,0,1,4.86-.35c2.4,0,4.08.37,5.23,1.28a4.11,4.11,0,0,1,1.5,3.39,4.29,4.29,0,0,1-2.86,4v.08c1.13.45,1.76,1.52,2.17,3a45.54,45.54,0,0,0,1.3,4.56h-3.74a19.92,19.92,0,0,1-1.12-3.77c-.45-2-1.13-2.56-2.63-2.58H99.85v6.35H96.23Zm3.62,6.95h1.43c1.82,0,2.9-.92,2.9-2.33s-1-2.23-2.68-2.24a7.36,7.36,0,0,0-1.65.12Z"/><path d="M47.83,65.09c.46,2,1.83,3.25,4.36,3.25,2.82,0,3.89-1.4,3.89-3.08s-.77-2.81-4.16-3.65-4.66-1.87-4.66-4.09c0-2,1.47-3.92,4.77-3.92s4.82,2.07,5,3.94H55.82c-.35-1.65-1.43-2.84-3.85-2.84-2.22,0-3.43,1-3.43,2.75s1,2.36,3.85,3.06c4.33,1.08,5,2.82,5,4.66,0,2.27-1.65,4.23-5.22,4.23-3.85,0-5.25-2.24-5.54-4.31Z"/><path d="M72.41,65.11a5.63,5.63,0,0,1-5.79,4.29c-4.42,0-6.75-3.52-6.75-7.86,0-4.15,2.28-7.94,6.77-7.94,3.32,0,5.28,1.85,5.79,4.42H71.24a4.45,4.45,0,0,0-4.66-3.32c-3.83,0-5.44,3.5-5.44,6.82s1.59,6.78,5.52,6.78a4.53,4.53,0,0,0,4.56-3.19Z"/><path d="M75.73,53.82h1.18v6.71h9.25V53.82h1.18v15.4H86.16V61.63H76.91v7.59H75.73Z"/><path d="M104.59,61.41c0,4.21-2.24,8-7,8-4.34,0-6.87-3.49-6.87-7.92s2.44-7.92,7-7.92C102,53.6,104.59,56.92,104.59,61.41ZM92,61.46c0,3.54,2,6.88,5.65,6.88,4,0,5.66-3.25,5.66-6.91s-1.9-6.73-5.61-6.73C93.74,54.7,92,58,92,61.46Z"/><path d="M120.92,61.41c0,4.21-2.25,8-7,8-4.34,0-6.87-3.49-6.87-7.92s2.45-7.92,7-7.92C118.3,53.6,120.92,56.92,120.92,61.41Zm-12.59.05c0,3.54,2,6.88,5.66,6.88,4,0,5.65-3.25,5.65-6.91S117.75,54.7,114,54.7C110.07,54.7,108.33,58,108.33,61.46Z"/><path d="M124.3,53.82h1.19v14.3h8.27l-.22,1.1H124.3Z"/></g></g></svg>